<?xml version="1.0" encoding="UTF-8"?>
<svg width="170px" height="34px" viewBox="0 0 170 34" version="1.1" xmlns="http://www.w3.org/2000/svg" xmlns:xlink="http://www.w3.org/1999/xlink">
    <title>Group 2</title>
    <g id="Page-1" stroke="none" stroke-width="1" fill="none" fill-rule="evenodd">
        <g id="logo-schenk-weiss-svg" transform="translate(-15.000000, -8.000000)">
            <g id="Group-2" transform="translate(15.025674, 8.588000)">
                <g id="LOGO-GRÜN-MARTIN-SCHENK" fill="#24CD9C">
                    <circle id="Oval" cx="10.8333333" cy="21.6666667" r="10.8333333"></circle>
                    <circle id="Oval" cx="27.0833333" cy="10.8333333" r="5.41666667"></circle>
                    <circle id="Oval" cx="35.2083333" cy="2.70833333" r="2.70833333"></circle>
                </g>
                <path d="M53.0206667,32.824 C54.2686667,32.824 55.4806667,32.656 56.6566667,32.32 C57.8326667,31.984 58.8766667,31.468 59.7886667,30.772 C60.7006667,30.076 61.4266667,29.194 61.9666667,28.126 C62.5066667,27.058 62.7766667,25.792 62.7766667,24.328 C62.7766667,23.056 62.5246667,21.994 62.0206667,21.142 C61.5166667,20.29 60.8806667,19.576 60.1126667,19 C59.3446667,18.424 58.4926667,17.962 57.5566667,17.614 C56.6206667,17.266 55.7206667,16.948 54.8566667,16.66 C54.2566667,16.468 53.7166667,16.282 53.2366667,16.102 C52.7566667,15.922 52.3426667,15.724 51.9946667,15.508 C51.6466667,15.292 51.3826667,15.04 51.2026667,14.752 C51.0226667,14.464 50.9326667,14.104 50.9326667,13.672 C50.9326667,13.168 51.0466667,12.754 51.2746667,12.43 C51.5026667,12.106 51.7846667,11.842 52.1206667,11.638 C52.4566667,11.434 52.8346667,11.296 53.2546667,11.224 C53.6746667,11.152 54.0886667,11.116 54.4966667,11.116 C55.2886667,11.116 56.1106667,11.314 56.9626667,11.71 C57.8146667,12.106 58.5046667,12.64 59.0326667,13.312 L59.0326667,13.312 L62.9566667,9.172 C61.8286667,8.14 60.5146667,7.36 59.0146667,6.832 C57.5146667,6.304 56.0446667,6.04 54.6046667,6.04 C53.4046667,6.04 52.2166667,6.19 51.0406667,6.49 C49.8646667,6.79 48.8086667,7.264 47.8726667,7.912 C46.9366667,8.56 46.1806667,9.388 45.6046667,10.396 C45.0286667,11.404 44.7406667,12.616 44.7406667,14.032 C44.7406667,15.184 44.9266667,16.162 45.2986667,16.966 C45.6706667,17.77 46.1626667,18.454 46.7746667,19.018 C47.3866667,19.582 48.0826667,20.044 48.8626667,20.404 C49.6426667,20.764 50.4406667,21.076 51.2566667,21.34 C52.0966667,21.604 52.8466667,21.85 53.5066667,22.078 C54.1666667,22.306 54.7186667,22.558 55.1626667,22.834 C55.6066667,23.11 55.9486667,23.416 56.1886667,23.752 C56.4286667,24.088 56.5486667,24.496 56.5486667,24.976 C56.5486667,25.48 56.4526667,25.912 56.2606667,26.272 C56.0686667,26.632 55.8106667,26.92 55.4866667,27.136 C55.1626667,27.352 54.7846667,27.508 54.3526667,27.604 C53.9206667,27.7 53.4766667,27.748 53.0206667,27.748 C52.0126667,27.748 50.9986667,27.49 49.9786667,26.974 C48.9586667,26.458 48.1366667,25.816 47.5126667,25.048 L47.5126667,25.048 L43.4806667,29.152 C44.6086667,30.328 46.0246667,31.234 47.7286667,31.87 C49.4326667,32.506 51.1966667,32.824 53.0206667,32.824 Z" id="Path" fill="#FFFFFF" fill-rule="nonzero"></path>
                <path d="M75.7726523,32.824 C77.0926523,32.824 78.3406523,32.62 79.5166523,32.212 C80.6926523,31.804 81.6526523,31.24 82.3966523,30.52 L82.3966523,30.52 L79.1206523,26.524 C78.7606523,26.956 78.2866523,27.286 77.6986523,27.514 C77.1106523,27.742 76.5166523,27.856 75.9166523,27.856 C75.2686523,27.856 74.6866523,27.736 74.1706523,27.496 C73.6546523,27.256 73.2106523,26.926 72.8386523,26.506 C72.4666523,26.086 72.1846523,25.6 71.9926523,25.048 C71.8006523,24.496 71.7046523,23.908 71.7046523,23.284 C71.7046523,22.66 71.8066523,22.072 72.0106523,21.52 C72.2146523,20.968 72.4966523,20.482 72.8566523,20.062 C73.2166523,19.642 73.6486523,19.306 74.1526523,19.054 C74.6566523,18.802 75.2206523,18.676 75.8446523,18.676 C76.4446523,18.676 77.0326523,18.808 77.6086523,19.072 C78.1846523,19.336 78.6406523,19.684 78.9766523,20.116 L78.9766523,20.116 L82.3966523,16.156 C82.0366523,15.796 81.6106523,15.466 81.1186523,15.166 C80.6266523,14.866 80.0866523,14.614 79.4986523,14.41 C78.9106523,14.206 78.2986523,14.044 77.6626523,13.924 C77.0266523,13.804 76.3846523,13.744 75.7366523,13.744 C74.3446523,13.744 73.0366523,13.966 71.8126523,14.41 C70.5886523,14.854 69.5266523,15.49 68.6266523,16.318 C67.7266523,17.146 67.0186523,18.148 66.5026523,19.324 C65.9866523,20.5 65.7286523,21.82 65.7286523,23.284 C65.7286523,24.772 65.9866523,26.104 66.5026523,27.28 C67.0186523,28.456 67.7266523,29.458 68.6266523,30.286 C69.5266523,31.114 70.5886523,31.744 71.8126523,32.176 C73.0366523,32.608 74.3566523,32.824 75.7726523,32.824 Z" id="Path" fill="#FFFFFF" fill-rule="nonzero"></path>
                <path d="M91.8646523,32.5 L91.8646523,22.816 C91.8646523,21.736 92.1406523,20.83 92.6926523,20.098 C93.2446523,19.366 94.0366523,19 95.0686523,19 C95.5966523,19 96.0286523,19.102 96.3646523,19.306 C96.7006523,19.51 96.9706523,19.786 97.1746523,20.134 C97.3786523,20.482 97.5166523,20.884 97.5886523,21.34 C97.6606523,21.796 97.6966523,22.276 97.6966523,22.78 L97.6966523,22.78 L97.6966523,32.5 L103.636652,32.5 L103.636652,21.412 C103.636652,20.524 103.522652,19.636 103.294652,18.748 C103.066652,17.86 102.694652,17.074 102.178652,16.39 C101.662652,15.706 100.990652,15.148 100.162652,14.716 C99.3346523,14.284 98.3086523,14.068 97.0846523,14.068 C95.8366523,14.068 94.7686523,14.35 93.8806523,14.914 C92.9926523,15.478 92.3446523,16.12 91.9366523,16.84 L91.9366523,16.84 L91.8646523,16.84 L91.8646523,5.284 L85.9606523,5.284 L85.9606523,32.5 L91.8646523,32.5 Z" id="Path" fill="#FFFFFF" fill-rule="nonzero"></path>
                <g id="Group" transform="translate(107.200652, 13.744000)" fill="#FFFFFF" fill-rule="nonzero">
                    <path d="M9.684,0 C11.004,0 12.216,0.222 13.32,0.666 C14.424,1.11 15.372,1.752 16.164,2.592 C16.956,3.432 17.574,4.452 18.018,5.652 C18.462,6.852 18.684,8.22 18.684,9.756 L18.684,9.756 L18.684,10.476 L18.68,10.712 C18.6746667,10.8666667 18.664,11.016 18.648,11.16 L18.648,11.16 L5.652,11.16 L5.6845,11.408 C5.75283333,11.8146667 5.892,12.188 6.102,12.528 C6.354,12.936 6.678,13.29 7.074,13.59 C7.47,13.89 7.914,14.124 8.406,14.292 C8.898,14.46 9.408,14.544 9.936,14.544 C10.872,14.544 11.664,14.37 12.312,14.022 C12.96,13.674 13.488,13.224 13.896,12.672 L13.896,12.672 L18,15.264 L17.8013609,15.5414556 C16.9876331,16.6312544 15.9438462,17.4807692 14.67,18.09 C13.29,18.75 11.688,19.08 9.864,19.08 C8.52,19.08 7.248,18.87 6.048,18.45 C4.848,18.03 3.798,17.418 2.898,16.614 C1.998,15.81 1.29,14.82 0.774,13.644 C0.258,12.468 0,11.124 0,9.612 C0,8.148 0.252,6.822 0.756,5.634 C1.26,4.446 1.944,3.438 2.808,2.61 C3.672,1.782 4.692,1.14 5.868,0.684 C7.044,0.228 8.316,0 9.684,0 Z M9.72,4.068 C9.144,4.068 8.616,4.158 8.136,4.338 C7.656,4.518 7.236,4.764 6.876,5.076 C6.516,5.388 6.228,5.754 6.012,6.174 C5.796,6.594 5.676,7.032 5.652,7.488 L5.652,7.488 L13.248,7.488 C13.248,6.552 12.954,5.748 12.366,5.076 C11.778,4.404 10.896,4.068 9.72,4.068 Z" id="Combined-Shape"></path>
                </g>
                <path d="M135.388652,32.176 L135.388652,22.456 C135.388652,21.952 135.454652,21.466 135.586652,20.998 C135.718652,20.53 135.916652,20.116 136.180652,19.756 C136.444652,19.396 136.774652,19.114 137.170652,18.91 C137.566652,18.706 138.028652,18.604 138.556652,18.604 C139.084652,18.604 139.522652,18.706 139.870652,18.91 C140.218652,19.114 140.488652,19.39 140.680652,19.738 C140.872652,20.086 141.010652,20.488 141.094652,20.944 C141.178652,21.4 141.220652,21.88 141.220652,22.384 L141.220652,22.384 L141.220652,32.176 L147.160652,32.176 L147.160652,21.088 C147.160652,20.2 147.046652,19.312 146.818652,18.424 C146.590652,17.536 146.218652,16.75 145.702652,16.066 C145.186652,15.382 144.508652,14.824 143.668652,14.392 C142.828652,13.96 141.808652,13.744 140.608652,13.744 C139.984652,13.744 139.396652,13.828 138.844652,13.996 C138.292652,14.164 137.782652,14.38 137.314652,14.644 C136.846652,14.908 136.438652,15.226 136.090652,15.598 C135.742652,15.97 135.460652,16.348 135.244652,16.732 L135.244652,16.732 L135.172652,16.732 L135.172652,14.248 L129.448652,14.248 L129.448652,32.176 L135.388652,32.176 Z" id="Path" fill="#FFFFFF" fill-rule="nonzero"></path>
                <polygon id="Path" fill="#FFFFFF" fill-rule="nonzero" points="156.664652 32.176 156.664652 23.572 156.772652 23.572 162.640652 32.176 169.948652 32.176 162.748652 22.348 169.660652 14.248 162.496652 14.248 156.772652 21.52 156.664652 21.52 156.664652 4.96 150.724652 4.96 150.724652 32.176"></polygon>
            </g>
        </g>
    </g>
</svg>