<?xml version="1.0" encoding="UTF-8"?>
<svg width="218px" height="54px" viewBox="0 0 218 54" version="1.1" xmlns="http://www.w3.org/2000/svg" xmlns:xlink="http://www.w3.org/1999/xlink">
    <title>Group 2</title>
    <g id="Page-1" stroke="none" stroke-width="1" fill="none" fill-rule="evenodd">
        <g id="Group-2" transform="translate(0.476576, 0.250000)">
            <path d="M162.493827,53.5828725 C162.951098,53.5828725 163.402105,53.5186667 163.846848,53.390255 C164.29159,53.2618434 164.690919,53.061396 165.044834,52.7889128 C165.398749,52.5164295 165.68376,52.1687785 165.899868,51.7459597 C166.115975,51.3231409 166.224029,50.8204564 166.224029,50.237906 C166.224029,49.6115078 166.114409,49.0853333 165.89517,48.6593826 C165.67593,48.2334318 165.387787,47.8936107 165.03074,47.6399195 C164.673693,47.3862282 164.266534,47.2045727 163.809264,47.094953 C163.351993,46.9853333 162.888458,46.9305235 162.41866,46.9305235 L162.41866,46.9305235 L160.013291,46.9305235 L160.013291,53.5828725 L162.493827,53.5828725 Z M162.343492,52.1922685 L161.582418,52.1922685 L161.582418,48.3023356 L162.381076,48.3023356 C162.656691,48.3023356 162.924476,48.3336555 163.184431,48.3962953 C163.444387,48.4589351 163.676154,48.5638568 163.879733,48.7110604 C164.083313,48.858264 164.246176,49.0555794 164.368324,49.3030067 C164.490472,49.550434 164.551546,49.8620671 164.551546,50.237906 C164.551546,50.607481 164.490472,50.9175481 164.368324,51.1681074 C164.246176,51.4186667 164.083313,51.6191141 163.879733,51.7694497 C163.676154,51.9197852 163.441255,52.0278389 163.175035,52.0936107 C162.908816,52.1593826 162.631635,52.1922685 162.343492,52.1922685 L162.343492,52.1922685 Z M171.927384,53.5828725 L171.927384,52.2110604 L168.836109,52.2110604 L168.836109,50.8298523 L171.598525,50.8298523 L171.598525,49.542604 L168.836109,49.542604 L168.836109,48.2929396 L171.758257,48.2929396 L171.758257,46.9305235 L167.285774,46.9305235 L167.285774,53.5828725 L171.927384,53.5828725 Z M174.934096,53.752 C175.259823,53.752 175.576154,53.7081521 175.883089,53.6204564 C176.190024,53.5327606 176.462508,53.398085 176.700539,53.2164295 C176.93857,53.034774 177.128056,52.8045727 177.268995,52.5258255 C177.409935,52.2470783 177.480405,51.9166532 177.480405,51.5345503 C177.480405,51.2025593 177.414633,50.9253781 177.283089,50.7030067 C177.151546,50.4806353 176.98555,50.2942819 176.785103,50.1439463 C176.584655,49.9936107 176.362284,49.8730291 176.117989,49.7822013 C175.873693,49.6913736 175.638794,49.6083758 175.413291,49.5332081 C175.256691,49.4830962 175.115751,49.4345503 174.990472,49.3875705 C174.865192,49.3405906 174.757138,49.2889128 174.666311,49.2325369 C174.575483,49.1761611 174.506579,49.1103893 174.459599,49.0352215 C174.412619,48.9600537 174.389129,48.866094 174.389129,48.7533423 C174.389129,48.6217987 174.418883,48.513745 174.478391,48.4291812 C174.537899,48.3446174 174.611501,48.2757136 174.699197,48.2224698 C174.786892,48.169226 174.88555,48.1332081 174.99517,48.1144161 C175.104789,48.0956242 175.212843,48.0862282 175.319331,48.0862282 C175.526042,48.0862282 175.740584,48.137906 175.962955,48.2412617 C176.185326,48.3446174 176.365416,48.4839911 176.503223,48.6593826 L176.503223,48.6593826 L177.527384,47.5788456 C177.232977,47.3094944 176.890024,47.105915 176.498525,46.9681074 C176.107027,46.8302998 175.723358,46.761396 175.347519,46.761396 C175.03432,46.761396 174.724252,46.8005459 174.417317,46.8788456 C174.110382,46.9571454 173.834767,47.0808591 173.590472,47.2499866 C173.346176,47.4191141 173.148861,47.6352215 172.998525,47.8983087 C172.84819,48.161396 172.773022,48.4777271 172.773022,48.847302 C172.773022,49.1479732 172.821568,49.4032304 172.91866,49.6130738 C173.015751,49.8229172 173.144163,50.0014407 173.303895,50.1486443 C173.463626,50.2958479 173.645282,50.4164295 173.848861,50.5103893 C174.05244,50.604349 174.260718,50.6857808 174.473693,50.7546846 C174.692933,50.8235884 174.888682,50.8877942 175.060942,50.947302 C175.233201,51.0068098 175.377273,51.0725817 175.493156,51.1446174 C175.60904,51.2166532 175.698302,51.296519 175.760942,51.3842148 C175.823581,51.4719105 175.854901,51.5783982 175.854901,51.7036779 C175.854901,51.8352215 175.829845,51.9479732 175.779733,52.0419329 C175.729622,52.1358926 175.662284,52.2110604 175.57772,52.2674362 C175.493156,52.3238121 175.394499,52.364528 175.281747,52.3895839 C175.168995,52.4146398 175.053112,52.4271678 174.934096,52.4271678 C174.671009,52.4271678 174.406355,52.35983 174.140136,52.2251544 C173.873917,52.0904787 173.659376,51.9229172 173.496512,51.7224698 L173.496512,51.7224698 L172.444163,52.7936107 C172.73857,53.1005459 173.108145,53.3370112 173.552888,53.5030067 C173.997631,53.6690022 174.458033,53.752 174.934096,53.752 Z M181.022687,53.5828725 C181.479957,53.5828725 181.930964,53.5186667 182.375707,53.390255 C182.820449,53.2618434 183.219778,53.061396 183.573693,52.7889128 C183.927608,52.5164295 184.212619,52.1687785 184.428727,51.7459597 C184.644834,51.3231409 184.752888,50.8204564 184.752888,50.237906 C184.752888,49.6115078 184.643268,49.0853333 184.424029,48.6593826 C184.204789,48.2334318 183.916646,47.8936107 183.559599,47.6399195 C183.202552,47.3862282 182.795393,47.2045727 182.338123,47.094953 C181.880852,46.9853333 181.417317,46.9305235 180.947519,46.9305235 L180.947519,46.9305235 L178.54215,46.9305235 L178.54215,53.5828725 L181.022687,53.5828725 Z M180.872351,52.1922685 L180.111277,52.1922685 L180.111277,48.3023356 L180.909935,48.3023356 C181.18555,48.3023356 181.453335,48.3336555 181.713291,48.3962953 C181.973246,48.4589351 182.205013,48.5638568 182.408593,48.7110604 C182.612172,48.858264 182.775035,49.0555794 182.897183,49.3030067 C183.019331,49.550434 183.080405,49.8620671 183.080405,50.237906 C183.080405,50.607481 183.019331,50.9175481 182.897183,51.1681074 C182.775035,51.4186667 182.612172,51.6191141 182.408593,51.7694497 C182.205013,51.9197852 181.970114,52.0278389 181.703895,52.0936107 C181.437675,52.1593826 181.160494,52.1922685 180.872351,52.1922685 L180.872351,52.1922685 Z M190.456244,53.5828725 L190.456244,52.2110604 L187.364968,52.2110604 L187.364968,50.8298523 L190.127384,50.8298523 L190.127384,49.542604 L187.364968,49.542604 L187.364968,48.2929396 L190.287116,48.2929396 L190.287116,46.9305235 L185.814633,46.9305235 L185.814633,53.5828725 L190.456244,53.5828725 Z M197.41866,53.5828725 L197.41866,46.9305235 L195.97168,46.9305235 L193.782418,48.5372349 L194.599868,49.6553557 L195.840136,48.6969664 L195.840136,53.5828725 L197.41866,53.5828725 Z M202.558257,53.5828725 L204.164968,51.1868993 C204.384208,50.8549083 204.562731,50.5276152 204.700539,50.2050201 C204.838346,49.8824251 204.90725,49.5238121 204.90725,49.1291812 C204.90725,48.7658702 204.838346,48.4370112 204.700539,48.142604 C204.562731,47.8481969 204.376378,47.5976376 204.141478,47.3909262 C203.906579,47.1842148 203.629398,47.0260492 203.309935,46.9164295 C202.990472,46.8068098 202.649085,46.752 202.285774,46.752 C201.928727,46.752 201.590472,46.8068098 201.271009,46.9164295 C200.951546,47.0260492 200.672798,47.1842148 200.434767,47.3909262 C200.196736,47.5976376 200.008816,47.8513289 199.871009,48.152 C199.733201,48.4526711 199.664297,48.7909262 199.664297,49.1667651 C199.664297,49.4924922 199.723805,49.7884653 199.842821,50.0546846 C199.961836,50.3209038 200.121568,50.5495391 200.322015,50.7405906 C200.522463,50.9316421 200.75423,51.0788456 201.017317,51.1822013 C201.280405,51.285557 201.559152,51.3372349 201.853559,51.3372349 C201.928727,51.3372349 202.008593,51.3309709 202.093156,51.318443 C202.17772,51.305915 202.254454,51.287123 202.323358,51.2620671 L202.323358,51.2620671 L202.304566,51.290255 L200.650874,53.5828725 L202.558257,53.5828725 Z M202.276378,50.1627383 C201.963179,50.1627383 201.712619,50.0640805 201.5247,49.8667651 C201.33678,49.6694497 201.242821,49.4204564 201.242821,49.1197852 C201.242821,48.8003221 201.338346,48.5419329 201.529398,48.3446174 C201.720449,48.147302 201.975707,48.0486443 202.29517,48.0486443 C202.614633,48.0486443 202.866758,48.153566 203.051546,48.3634094 C203.236333,48.5732528 203.328727,48.8222461 203.328727,49.1103893 C203.328727,49.4235884 203.231635,49.6772796 203.037452,49.8714631 C202.843268,50.0656465 202.589577,50.1627383 202.276378,50.1627383 Z M208.628056,53.5828725 L210.234767,51.1868993 C210.454006,50.8549083 210.63253,50.5276152 210.770338,50.2050201 C210.908145,49.8824251 210.977049,49.5238121 210.977049,49.1291812 C210.977049,48.7658702 210.908145,48.4370112 210.770338,48.142604 C210.63253,47.8481969 210.446176,47.5976376 210.211277,47.3909262 C209.976378,47.1842148 209.699197,47.0260492 209.379733,46.9164295 C209.06027,46.8068098 208.718883,46.752 208.355572,46.752 C207.998525,46.752 207.66027,46.8068098 207.340807,46.9164295 C207.021344,47.0260492 206.742597,47.1842148 206.504566,47.3909262 C206.266534,47.5976376 206.078615,47.8513289 205.940807,48.152 C205.803,48.4526711 205.734096,48.7909262 205.734096,49.1667651 C205.734096,49.4924922 205.793604,49.7884653 205.912619,50.0546846 C206.031635,50.3209038 206.191367,50.5495391 206.391814,50.7405906 C206.592261,50.9316421 206.824029,51.0788456 207.087116,51.1822013 C207.350203,51.285557 207.62895,51.3372349 207.923358,51.3372349 C207.998525,51.3372349 208.078391,51.3309709 208.162955,51.318443 C208.247519,51.305915 208.324252,51.287123 208.393156,51.2620671 L208.393156,51.2620671 L208.374364,51.290255 L206.720673,53.5828725 L208.628056,53.5828725 Z M208.346176,50.1627383 C208.032977,50.1627383 207.782418,50.0640805 207.594499,49.8667651 C207.406579,49.6694497 207.312619,49.4204564 207.312619,49.1197852 C207.312619,48.8003221 207.408145,48.5419329 207.599197,48.3446174 C207.790248,48.147302 208.045505,48.0486443 208.364968,48.0486443 C208.684431,48.0486443 208.936557,48.153566 209.121344,48.3634094 C209.306132,48.5732528 209.398525,48.8222461 209.398525,49.1103893 C209.398525,49.4235884 209.301434,49.6772796 209.10725,49.8714631 C208.913067,50.0656465 208.659376,50.1627383 208.346176,50.1627383 Z M214.697854,53.5828725 L216.304566,51.1868993 C216.523805,50.8549083 216.702329,50.5276152 216.840136,50.2050201 C216.977944,49.8824251 217.046848,49.5238121 217.046848,49.1291812 C217.046848,48.7658702 216.977944,48.4370112 216.840136,48.142604 C216.702329,47.8481969 216.515975,47.5976376 216.281076,47.3909262 C216.046176,47.1842148 215.768995,47.0260492 215.449532,46.9164295 C215.130069,46.8068098 214.788682,46.752 214.425371,46.752 C214.068324,46.752 213.730069,46.8068098 213.410606,46.9164295 C213.091143,47.0260492 212.812396,47.1842148 212.574364,47.3909262 C212.336333,47.5976376 212.148414,47.8513289 212.010606,48.152 C211.872798,48.4526711 211.803895,48.7909262 211.803895,49.1667651 C211.803895,49.4924922 211.863402,49.7884653 211.982418,50.0546846 C212.101434,50.3209038 212.261165,50.5495391 212.461613,50.7405906 C212.66206,50.9316421 212.893827,51.0788456 213.156915,51.1822013 C213.420002,51.285557 213.698749,51.3372349 213.993156,51.3372349 C214.068324,51.3372349 214.14819,51.3309709 214.232754,51.318443 C214.317317,51.305915 214.394051,51.287123 214.462955,51.2620671 L214.462955,51.2620671 L214.444163,51.290255 L212.790472,53.5828725 L214.697854,53.5828725 Z M214.415975,50.1627383 C214.102776,50.1627383 213.852217,50.0640805 213.664297,49.8667651 C213.476378,49.6694497 213.382418,49.4204564 213.382418,49.1197852 C213.382418,48.8003221 213.477944,48.5419329 213.668995,48.3446174 C213.860047,48.147302 214.115304,48.0486443 214.434767,48.0486443 C214.75423,48.0486443 215.006355,48.153566 215.191143,48.3634094 C215.37593,48.5732528 215.468324,48.8222461 215.468324,49.1103893 C215.468324,49.4235884 215.371232,49.6772796 215.177049,49.8714631 C214.982865,50.0656465 214.729174,50.1627383 214.415975,50.1627383 Z" id="DESDE1999" fill="#F5FAFF" fill-rule="nonzero" opacity="0.597914923"></path>
            <g id="LOGO-GRÜN-MARTIN-SCHENK" fill="#24CD9C">
                <circle id="Oval" cx="14.02683" cy="28.0536599" r="14.02683"></circle>
                <circle id="Oval" cx="35.0670749" cy="14.02683" r="7.01341498"></circle>
                <circle id="Oval" cx="45.5871974" cy="3.50670749" r="3.50670749"></circle>
            </g>
            <path d="M65.650327,42.5 C67.2662178,42.5 68.8354964,42.2824762 70.3581627,41.8474287 C71.8808291,41.4123812 73.2325839,40.7442725 74.4134272,39.8431026 C75.5942705,38.9419327 76.5342839,37.799933 77.2334674,36.4171033 C77.9326509,35.0342737 78.2822427,33.3950768 78.2822427,31.4995126 C78.2822427,29.8525469 77.955957,28.477486 77.3033857,27.3743298 C76.6508144,26.2711735 75.8273316,25.3466975 74.8329373,24.6009018 C73.8385429,23.855106 72.7353867,23.2569157 71.5234686,22.8063307 C70.3115505,22.3557458 69.1462446,21.9440044 68.027551,21.5711065 C67.2506804,21.3225079 66.5514969,21.081678 65.9300004,20.8486169 C65.3085039,20.6155557 64.7724632,20.3591884 64.3218783,20.079515 C63.8712934,19.7998416 63.5294703,19.4735559 63.2964091,19.1006581 C63.063348,18.7277602 62.9468174,18.2616378 62.9468174,17.702291 C62.9468174,17.0497197 63.0944228,16.513679 63.3896336,16.0941689 C63.6848444,15.6746588 64.0499736,15.3328357 64.4850211,15.0686997 C64.9200686,14.8045637 65.4094971,14.6258835 65.9533065,14.532659 C66.4971159,14.4394346 67.0331566,14.3928223 67.5614286,14.3928223 C68.5868978,14.3928223 69.6512105,14.6491896 70.7543667,15.1619242 C71.857523,15.6746588 72.7509241,16.3660736 73.4345702,17.2361687 L78.5153038,11.8757616 C77.0547871,10.5395442 75.3534406,9.52961248 73.4112641,8.84596637 C71.4690877,8.16232025 69.5657547,7.8204972 67.7012653,7.8204972 C66.1475242,7.8204972 64.6093204,8.01471484 63.0866541,8.40315013 C61.5639877,8.79158543 60.1966955,9.40531319 58.9847774,10.2443334 C57.7728593,11.0833536 56.7940024,12.155435 56.0482066,13.4605776 C55.3024108,14.7657202 54.929513,16.3349988 54.929513,18.1684134 C54.929513,19.6600049 55.1703428,20.9263039 55.6520026,21.9673105 C56.1336624,23.0083171 56.7706962,23.8939495 57.5631042,24.6242079 C58.3555122,25.3544662 59.2566821,25.9526566 60.2666139,26.4187789 C61.2765456,26.8849013 62.3097835,27.288874 63.3663275,27.6306971 C64.4539463,27.9725201 65.4250345,28.291037 66.2795922,28.5862479 C67.1341498,28.8814587 67.8488707,29.2077443 68.423755,29.5651048 C68.9986392,29.9224653 69.4414554,30.3186693 69.7522037,30.7537168 C70.0629519,31.1887643 70.218326,31.7170363 70.218326,32.3385328 C70.218326,32.9911041 70.0940267,33.5504509 69.8454281,34.0165732 C69.5968296,34.4826956 69.2627752,34.8555935 68.8432651,35.1352669 C68.423755,35.4149403 67.9343265,35.6169266 67.3749797,35.7412259 C66.8156329,35.8655252 66.2407486,35.9276749 65.650327,35.9276749 C64.3451844,35.9276749 63.0322731,35.5936205 61.7115931,34.9255118 C60.3909132,34.2574031 59.3266005,33.4261516 58.518655,32.4317573 L53.2980847,37.745552 C54.7586014,39.2682184 56.592016,40.441293 58.7983285,41.2647758 C61.0046409,42.0882586 63.2886404,42.5 65.650327,42.5 Z" id="Path" fill="#FFFFFF" fill-rule="nonzero"></path>
            <path d="M95.1092409,42.5 C96.8183562,42.5 98.434247,42.235864 99.9569134,41.707592 C101.47958,41.17932 102.722573,40.4490617 103.685892,39.516817 L103.685892,39.516817 L99.4441788,34.3428589 C98.9780564,34.9022057 98.3643287,35.3294845 97.6029955,35.6246953 C96.8416623,35.9199062 96.0725605,36.0675116 95.2956899,36.0675116 C94.4566697,36.0675116 93.7031052,35.9121375 93.0349965,35.6013892 C92.3668878,35.290641 91.7920036,34.8633622 91.3103438,34.3195528 C90.828684,33.7757434 90.4635549,33.1464782 90.2149563,32.4317573 C89.9663577,31.7170363 89.8420584,30.9557031 89.8420584,30.1477577 C89.8420584,29.3398123 89.9741264,28.5784792 90.2382624,27.8637582 C90.5023984,27.1490373 90.8675276,26.5197721 91.3336499,25.9759627 C91.7997723,25.4321533 92.3591191,24.9971058 93.0116904,24.6708201 C93.6642617,24.3445345 94.39452,24.1813917 95.2024654,24.1813917 C95.979336,24.1813917 96.7406692,24.3523032 97.4864649,24.6941262 C98.2322607,25.0359493 98.8226823,25.4865342 99.2577299,26.0458811 L99.2577299,26.0458811 L103.685892,20.9185352 C103.21977,20.4524129 102.668192,20.025134 102.031158,19.6366988 C101.394124,19.2482635 100.69494,18.9219778 99.9336073,18.6578418 C99.1722741,18.3937058 98.3798661,18.1839508 97.5563833,18.0285767 C96.7329005,17.8732025 95.9016489,17.7955155 95.0626287,17.7955155 C93.260289,17.7955155 91.5667111,18.0829576 89.9818951,18.6578418 C88.3970791,19.2327261 87.0220182,20.0562089 85.8567123,21.1282903 C84.6914064,22.2003717 83.7746991,23.4977456 83.1065904,25.0204119 C82.4384817,26.5430782 82.1044274,28.2521935 82.1044274,30.1477577 C82.1044274,32.0743968 82.4384817,33.7990495 83.1065904,35.3217158 C83.7746991,36.8443822 84.6914064,38.141756 85.8567123,39.2138374 C87.0220182,40.2859188 88.3970791,41.101633 89.9818951,41.6609798 C91.5667111,42.2203266 93.2758264,42.5 95.1092409,42.5 Z" id="Path" fill="#FFFFFF" fill-rule="nonzero"></path>
            <path d="M115.94491,42.0804899 L115.94491,29.5417987 C115.94491,28.1434316 116.30227,26.9703571 117.016991,26.0225749 C117.731712,25.0747928 118.757181,24.6009018 120.093399,24.6009018 C120.777045,24.6009018 121.336392,24.7329698 121.771439,24.9971058 C122.206487,25.2612418 122.556079,25.6186022 122.820215,26.0691872 C123.084351,26.5197721 123.263031,27.0402754 123.356255,27.6306971 C123.44948,28.2211187 123.496092,28.8426152 123.496092,29.4951864 L123.496092,29.4951864 L123.496092,42.0804899 L131.187111,42.0804899 L131.187111,27.7239215 C131.187111,26.5741531 131.039505,25.4243846 130.744295,24.2746161 C130.449084,23.1248477 129.967424,22.1071472 129.299315,21.2215147 C128.631207,20.3358823 127.761112,19.6133926 126.68903,19.0540458 C125.616949,18.494699 124.2885,18.2150256 122.703684,18.2150256 C121.087793,18.2150256 119.704964,18.5801548 118.555195,19.3104131 C117.405427,20.0406715 116.566406,20.871923 116.038134,21.8041677 L116.038134,21.8041677 L115.94491,21.8041677 L115.94491,6.84164026 L108.300503,6.84164026 L108.300503,42.0804899 L115.94491,42.0804899 Z" id="Path" fill="#FFFFFF" fill-rule="nonzero"></path>
            <g id="Group" transform="translate(135.801722, 17.795515)" fill="#FFFFFF" fill-rule="nonzero">
                <path d="M12.5386912,0 C14.2478065,0 15.8170851,0.287442116 17.2465269,0.862326347 C18.6759688,1.43721058 19.9034243,2.2684621 20.9288935,3.35608092 C21.9543627,4.44369973 22.7545394,5.76437972 23.3294236,7.31812089 C23.9043078,8.87186205 24.1917499,10.643127 24.1917499,12.6319157 L24.1917499,12.6319157 L24.1917499,13.5641604 L24.1865708,13.8697295 C24.1796653,14.0699894 24.1658543,14.2633439 24.1451377,14.4497928 L24.1451377,14.4497928 L7.31812089,14.4497928 L7.35284225,14.7256612 C7.43845655,15.2697877 7.62110041,15.7682532 7.90077382,16.2210578 C8.22705947,16.7493298 8.64656958,17.2076834 9.15930417,17.5961187 C9.67203875,17.984554 10.246923,18.2875335 10.8839569,18.5050573 C11.5209907,18.722581 12.1813307,18.8313429 12.8649768,18.8313429 C14.076895,18.8313429 15.1023641,18.6060505 15.9413844,18.1554655 C16.7804046,17.7048806 17.4640507,17.1222276 17.9923227,16.4075067 L17.9923227,16.4075067 L23.3061175,19.7635876 L23.0839325,20.0756824 C22.0253168,21.5094057 20.6621679,22.6250609 18.9944857,23.4226481 C17.2076834,24.2772057 15.1334389,24.7044845 12.7717524,24.7044845 C11.0315623,24.7044845 9.38459664,24.4325798 7.83085547,23.8887704 C6.27711431,23.344961 4.91759079,22.552553 3.75228491,21.5115464 C2.58697904,20.4705398 1.67027175,19.1887034 1.00216305,17.666037 C0.33405435,16.1433707 0,14.4031806 0,12.4454667 C0,10.5499025 0.326285645,8.83301852 0.978856934,7.29481477 C1.63142822,5.75661102 2.51706069,4.45146844 3.63575433,3.37938703 C4.75444796,2.30730563 6.07512796,1.47605411 7.5977943,0.885632464 C9.12046064,0.295210821 10.7674263,0 12.5386912,0 Z M12.5853034,5.26718255 C11.8395077,5.26718255 11.1558616,5.38371314 10.5343651,5.61677431 C9.91286863,5.84983549 9.36905922,6.16835243 8.90293688,6.57232513 C8.43681453,6.97629783 8.06391665,7.45018889 7.78424324,7.99399829 C7.50456983,8.5378077 7.34919571,9.10492323 7.31812089,9.69534487 L7.31812089,9.69534487 L17.1533025,9.69534487 C17.1533025,8.48342676 16.7726359,7.44242018 16.0113027,6.57232513 C15.2499695,5.70223008 14.1079698,5.26718255 12.5853034,5.26718255 Z" id="Combined-Shape"></path>
            </g>
            <path d="M172.299102,41.6609798 L172.299102,29.0756763 C172.299102,28.423105 172.384558,27.7938399 172.555469,27.1878808 C172.726381,26.5819218 172.982748,26.0458811 173.324571,25.5797587 C173.666394,25.1136364 174.093673,24.7485072 174.606408,24.4843712 C175.119142,24.2202352 175.717333,24.0881672 176.400979,24.0881672 C177.084625,24.0881672 177.65174,24.2202352 178.102325,24.4843712 C178.55291,24.7485072 178.902502,25.1058677 179.151101,25.5564526 C179.399699,26.0070375 179.578379,26.5275408 179.687141,27.1179625 C179.795903,27.7083841 179.850284,28.3298806 179.850284,28.9824519 L179.850284,28.9824519 L179.850284,41.6609798 L187.541303,41.6609798 L187.541303,27.3044114 C187.541303,26.1546429 187.393697,25.0048745 187.098487,23.855106 C186.803276,22.7053376 186.321616,21.6876371 185.653507,20.8020046 C184.985399,19.9163722 184.107535,19.1938825 183.019916,18.6345357 C181.932297,18.0751889 180.611617,17.7955155 179.057876,17.7955155 C178.249931,17.7955155 177.488598,17.9042774 176.773877,18.1218011 C176.059156,18.3393249 175.398816,18.6189983 174.792857,18.9608214 C174.186898,19.3026444 173.658626,19.7143858 173.208041,20.1960456 C172.757456,20.6777053 172.392326,21.1671338 172.112653,21.664331 L172.112653,21.664331 L172.019429,21.664331 L172.019429,18.4480868 L164.608083,18.4480868 L164.608083,41.6609798 L172.299102,41.6609798 Z" id="Path" fill="#FFFFFF" fill-rule="nonzero"></path>
            <polygon id="Path" fill="#FFFFFF" fill-rule="nonzero" points="199.846933 41.6609798 199.846933 30.5206556 199.98677 30.5206556 207.584564 41.6609798 217.046848 41.6609798 207.724401 28.9358396 216.67395 18.4480868 207.398115 18.4480868 199.98677 27.8637582 199.846933 27.8637582 199.846933 6.42213015 192.155914 6.42213015 192.155914 41.6609798"></polygon>
        </g>
    </g>
</svg>