<?xml version="1.0" encoding="UTF-8"?>
<svg width="237px" height="76px" viewBox="0 0 237 76" version="1.1" xmlns="http://www.w3.org/2000/svg" xmlns:xlink="http://www.w3.org/1999/xlink">
    <title>logo-schenk-1999-dunkel-svg1</title>
    <g id="logo-schenk-1999-dunkel-svg" stroke="none" stroke-width="1" fill="none" fill-rule="evenodd">
        <g id="Group-2" transform="translate(6.976576, 7.250000)">
            <path d="M138.146848,62.5 C138.828181,62.5 139.500181,62.4043333 140.162848,62.213 C140.825514,62.0216667 141.420514,61.723 141.947848,61.317 C142.475181,60.911 142.899848,60.393 143.221848,59.763 C143.543848,59.133 143.704848,58.384 143.704848,57.516 C143.704848,56.5826667 143.541514,55.7986667 143.214848,55.164 C142.888181,54.5293333 142.458848,54.023 141.926848,53.645 C141.394848,53.267 140.788181,52.9963333 140.106848,52.833 C139.425514,52.6696667 138.734848,52.588 138.034848,52.588 L138.034848,52.588 L134.450848,52.588 L134.450848,62.5 L138.146848,62.5 Z M137.922848,60.428 L136.788848,60.428 L136.788848,54.632 L137.978848,54.632 C138.389514,54.632 138.788514,54.6786667 139.175848,54.772 C139.563181,54.8653333 139.908514,55.0216667 140.211848,55.241 C140.515181,55.4603333 140.757848,55.7543333 140.939848,56.123 C141.121848,56.4916667 141.212848,56.956 141.212848,57.516 C141.212848,58.0666667 141.121848,58.5286667 140.939848,58.902 C140.757848,59.2753333 140.515181,59.574 140.211848,59.798 C139.908514,60.022 139.558514,60.183 139.161848,60.281 C138.765181,60.379 138.352181,60.428 137.922848,60.428 L137.922848,60.428 Z M152.202848,62.5 L152.202848,60.456 L147.596848,60.456 L147.596848,58.398 L151.712848,58.398 L151.712848,56.48 L147.596848,56.48 L147.596848,54.618 L151.950848,54.618 L151.950848,52.588 L145.286848,52.588 L145.286848,62.5 L152.202848,62.5 Z M156.682848,62.752 C157.168181,62.752 157.639514,62.6866667 158.096848,62.556 C158.554181,62.4253333 158.960181,62.2246667 159.314848,61.954 C159.669514,61.6833333 159.951848,61.3403333 160.161848,60.925 C160.371848,60.5096667 160.476848,60.0173333 160.476848,59.448 C160.476848,58.9533333 160.378848,58.5403333 160.182848,58.209 C159.986848,57.8776667 159.739514,57.6 159.440848,57.376 C159.142181,57.152 158.810848,56.9723333 158.446848,56.837 C158.082848,56.7016667 157.732848,56.578 157.396848,56.466 C157.163514,56.3913333 156.953514,56.319 156.766848,56.249 C156.580181,56.179 156.419181,56.102 156.283848,56.018 C156.148514,55.934 156.045848,55.836 155.975848,55.724 C155.905848,55.612 155.870848,55.472 155.870848,55.304 C155.870848,55.108 155.915181,54.947 156.003848,54.821 C156.092514,54.695 156.202181,54.5923333 156.332848,54.513 C156.463514,54.4336667 156.610514,54.38 156.773848,54.352 C156.937181,54.324 157.098181,54.31 157.256848,54.31 C157.564848,54.31 157.884514,54.387 158.215848,54.541 C158.547181,54.695 158.815514,54.9026667 159.020848,55.164 L159.020848,55.164 L160.546848,53.554 C160.108181,53.1526667 159.597181,52.8493333 159.013848,52.644 C158.430514,52.4386667 157.858848,52.336 157.298848,52.336 C156.832181,52.336 156.370181,52.3943333 155.912848,52.511 C155.455514,52.6276667 155.044848,52.812 154.680848,53.064 C154.316848,53.316 154.022848,53.638 153.798848,54.03 C153.574848,54.422 153.462848,54.8933333 153.462848,55.444 C153.462848,55.892 153.535181,56.2723333 153.679848,56.585 C153.824514,56.8976667 154.015848,57.1636667 154.253848,57.383 C154.491848,57.6023333 154.762514,57.782 155.065848,57.922 C155.369181,58.062 155.679514,58.1833333 155.996848,58.286 C156.323514,58.3886667 156.615181,58.4843333 156.871848,58.573 C157.128514,58.6616667 157.343181,58.7596667 157.515848,58.867 C157.688514,58.9743333 157.821514,59.0933333 157.914848,59.224 C158.008181,59.3546667 158.054848,59.5133333 158.054848,59.7 C158.054848,59.896 158.017514,60.064 157.942848,60.204 C157.868181,60.344 157.767848,60.456 157.641848,60.54 C157.515848,60.624 157.368848,60.6846667 157.200848,60.722 C157.032848,60.7593333 156.860181,60.778 156.682848,60.778 C156.290848,60.778 155.896514,60.6776667 155.499848,60.477 C155.103181,60.2763333 154.783514,60.0266667 154.540848,59.728 L154.540848,59.728 L152.972848,61.324 C153.411514,61.7813333 153.962181,62.1336667 154.624848,62.381 C155.287514,62.6283333 155.973514,62.752 156.682848,62.752 Z M165.754848,62.5 C166.436181,62.5 167.108181,62.4043333 167.770848,62.213 C168.433514,62.0216667 169.028514,61.723 169.555848,61.317 C170.083181,60.911 170.507848,60.393 170.829848,59.763 C171.151848,59.133 171.312848,58.384 171.312848,57.516 C171.312848,56.5826667 171.149514,55.7986667 170.822848,55.164 C170.496181,54.5293333 170.066848,54.023 169.534848,53.645 C169.002848,53.267 168.396181,52.9963333 167.714848,52.833 C167.033514,52.6696667 166.342848,52.588 165.642848,52.588 L165.642848,52.588 L162.058848,52.588 L162.058848,62.5 L165.754848,62.5 Z M165.530848,60.428 L164.396848,60.428 L164.396848,54.632 L165.586848,54.632 C165.997514,54.632 166.396514,54.6786667 166.783848,54.772 C167.171181,54.8653333 167.516514,55.0216667 167.819848,55.241 C168.123181,55.4603333 168.365848,55.7543333 168.547848,56.123 C168.729848,56.4916667 168.820848,56.956 168.820848,57.516 C168.820848,58.0666667 168.729848,58.5286667 168.547848,58.902 C168.365848,59.2753333 168.123181,59.574 167.819848,59.798 C167.516514,60.022 167.166514,60.183 166.769848,60.281 C166.373181,60.379 165.960181,60.428 165.530848,60.428 L165.530848,60.428 Z M179.810848,62.5 L179.810848,60.456 L175.204848,60.456 L175.204848,58.398 L179.320848,58.398 L179.320848,56.48 L175.204848,56.48 L175.204848,54.618 L179.558848,54.618 L179.558848,52.588 L172.894848,52.588 L172.894848,62.5 L179.810848,62.5 Z M190.184848,62.5 L190.184848,52.588 L188.028848,52.588 L184.766848,54.982 L185.984848,56.648 L187.832848,55.22 L187.832848,62.5 L190.184848,62.5 Z M197.842848,62.5 L200.236848,58.93 C200.563514,58.4353333 200.829514,57.9476667 201.034848,57.467 C201.240181,56.9863333 201.342848,56.452 201.342848,55.864 C201.342848,55.3226667 201.240181,54.8326667 201.034848,54.394 C200.829514,53.9553333 200.551848,53.582 200.201848,53.274 C199.851848,52.966 199.438848,52.7303333 198.962848,52.567 C198.486848,52.4036667 197.978181,52.322 197.436848,52.322 C196.904848,52.322 196.400848,52.4036667 195.924848,52.567 C195.448848,52.7303333 195.033514,52.966 194.678848,53.274 C194.324181,53.582 194.044181,53.96 193.838848,54.408 C193.633514,54.856 193.530848,55.36 193.530848,55.92 C193.530848,56.4053333 193.619514,56.8463333 193.796848,57.243 C193.974181,57.6396667 194.212181,57.9803333 194.510848,58.265 C194.809514,58.5496667 195.154848,58.769 195.546848,58.923 C195.938848,59.077 196.354181,59.154 196.792848,59.154 C196.904848,59.154 197.023848,59.1446667 197.149848,59.126 C197.275848,59.1073333 197.390181,59.0793333 197.492848,59.042 L197.492848,59.042 L197.464848,59.084 L195.000848,62.5 L197.842848,62.5 Z M197.422848,57.404 C196.956181,57.404 196.582848,57.257 196.302848,56.963 C196.022848,56.669 195.882848,56.298 195.882848,55.85 C195.882848,55.374 196.025181,54.989 196.309848,54.695 C196.594514,54.401 196.974848,54.254 197.450848,54.254 C197.926848,54.254 198.302514,54.4103333 198.577848,54.723 C198.853181,55.0356667 198.990848,55.4066667 198.990848,55.836 C198.990848,56.3026667 198.846181,56.6806667 198.556848,56.97 C198.267514,57.2593333 197.889514,57.404 197.422848,57.404 Z M206.886848,62.5 L209.280848,58.93 C209.607514,58.4353333 209.873514,57.9476667 210.078848,57.467 C210.284181,56.9863333 210.386848,56.452 210.386848,55.864 C210.386848,55.3226667 210.284181,54.8326667 210.078848,54.394 C209.873514,53.9553333 209.595848,53.582 209.245848,53.274 C208.895848,52.966 208.482848,52.7303333 208.006848,52.567 C207.530848,52.4036667 207.022181,52.322 206.480848,52.322 C205.948848,52.322 205.444848,52.4036667 204.968848,52.567 C204.492848,52.7303333 204.077514,52.966 203.722848,53.274 C203.368181,53.582 203.088181,53.96 202.882848,54.408 C202.677514,54.856 202.574848,55.36 202.574848,55.92 C202.574848,56.4053333 202.663514,56.8463333 202.840848,57.243 C203.018181,57.6396667 203.256181,57.9803333 203.554848,58.265 C203.853514,58.5496667 204.198848,58.769 204.590848,58.923 C204.982848,59.077 205.398181,59.154 205.836848,59.154 C205.948848,59.154 206.067848,59.1446667 206.193848,59.126 C206.319848,59.1073333 206.434181,59.0793333 206.536848,59.042 L206.536848,59.042 L206.508848,59.084 L204.044848,62.5 L206.886848,62.5 Z M206.466848,57.404 C206.000181,57.404 205.626848,57.257 205.346848,56.963 C205.066848,56.669 204.926848,56.298 204.926848,55.85 C204.926848,55.374 205.069181,54.989 205.353848,54.695 C205.638514,54.401 206.018848,54.254 206.494848,54.254 C206.970848,54.254 207.346514,54.4103333 207.621848,54.723 C207.897181,55.0356667 208.034848,55.4066667 208.034848,55.836 C208.034848,56.3026667 207.890181,56.6806667 207.600848,56.97 C207.311514,57.2593333 206.933514,57.404 206.466848,57.404 Z M215.930848,62.5 L218.324848,58.93 C218.651514,58.4353333 218.917514,57.9476667 219.122848,57.467 C219.328181,56.9863333 219.430848,56.452 219.430848,55.864 C219.430848,55.3226667 219.328181,54.8326667 219.122848,54.394 C218.917514,53.9553333 218.639848,53.582 218.289848,53.274 C217.939848,52.966 217.526848,52.7303333 217.050848,52.567 C216.574848,52.4036667 216.066181,52.322 215.524848,52.322 C214.992848,52.322 214.488848,52.4036667 214.012848,52.567 C213.536848,52.7303333 213.121514,52.966 212.766848,53.274 C212.412181,53.582 212.132181,53.96 211.926848,54.408 C211.721514,54.856 211.618848,55.36 211.618848,55.92 C211.618848,56.4053333 211.707514,56.8463333 211.884848,57.243 C212.062181,57.6396667 212.300181,57.9803333 212.598848,58.265 C212.897514,58.5496667 213.242848,58.769 213.634848,58.923 C214.026848,59.077 214.442181,59.154 214.880848,59.154 C214.992848,59.154 215.111848,59.1446667 215.237848,59.126 C215.363848,59.1073333 215.478181,59.0793333 215.580848,59.042 L215.580848,59.042 L215.552848,59.084 L213.088848,62.5 L215.930848,62.5 Z M215.510848,57.404 C215.044181,57.404 214.670848,57.257 214.390848,56.963 C214.110848,56.669 213.970848,56.298 213.970848,55.85 C213.970848,55.374 214.113181,54.989 214.397848,54.695 C214.682514,54.401 215.062848,54.254 215.538848,54.254 C216.014848,54.254 216.390514,54.4103333 216.665848,54.723 C216.941181,55.0356667 217.078848,55.4066667 217.078848,55.836 C217.078848,56.3026667 216.934181,56.6806667 216.644848,56.97 C216.355514,57.2593333 215.977514,57.404 215.510848,57.404 Z" id="DESDE1999" fill="#1A3336" fill-rule="nonzero" opacity="0.597914923"></path>
            <g id="LOGO-GRÜN-MARTIN-SCHENK" fill="#24CD9C">
                <circle id="Oval" cx="14.02683" cy="28.0536599" r="14.02683"></circle>
                <circle id="Oval" cx="35.0670749" cy="14.02683" r="7.01341498"></circle>
                <circle id="Oval" cx="45.5871974" cy="3.50670749" r="3.50670749"></circle>
            </g>
            <path d="M68.650327,42.5 C70.2662178,42.5 71.8354964,42.2824762 73.3581627,41.8474287 C74.8808291,41.4123812 76.2325839,40.7442725 77.4134272,39.8431026 C78.5942705,38.9419327 79.5342839,37.799933 80.2334674,36.4171033 C80.9326509,35.0342737 81.2822427,33.3950768 81.2822427,31.4995126 C81.2822427,29.8525469 80.955957,28.477486 80.3033857,27.3743298 C79.6508144,26.2711735 78.8273316,25.3466975 77.8329373,24.6009018 C76.8385429,23.855106 75.7353867,23.2569157 74.5234686,22.8063307 C73.3115505,22.3557458 72.1462446,21.9440044 71.027551,21.5711065 C70.2506804,21.3225079 69.5514969,21.081678 68.9300004,20.8486169 C68.3085039,20.6155557 67.7724632,20.3591884 67.3218783,20.079515 C66.8712934,19.7998416 66.5294703,19.4735559 66.2964091,19.1006581 C66.063348,18.7277602 65.9468174,18.2616378 65.9468174,17.702291 C65.9468174,17.0497197 66.0944228,16.513679 66.3896336,16.0941689 C66.6848444,15.6746588 67.0499736,15.3328357 67.4850211,15.0686997 C67.9200686,14.8045637 68.4094971,14.6258835 68.9533065,14.532659 C69.4971159,14.4394346 70.0331566,14.3928223 70.5614286,14.3928223 C71.5868978,14.3928223 72.6512105,14.6491896 73.7543667,15.1619242 C74.857523,15.6746588 75.7509241,16.3660736 76.4345702,17.2361687 L81.5153038,11.8757616 C80.0547871,10.5395442 78.3534406,9.52961248 76.4112641,8.84596637 C74.4690877,8.16232025 72.5657547,7.8204972 70.7012653,7.8204972 C69.1475242,7.8204972 67.6093204,8.01471484 66.0866541,8.40315013 C64.5639877,8.79158543 63.1966955,9.40531319 61.9847774,10.2443334 C60.7728593,11.0833536 59.7940024,12.155435 59.0482066,13.4605776 C58.3024108,14.7657202 57.929513,16.3349988 57.929513,18.1684134 C57.929513,19.6600049 58.1703428,20.9263039 58.6520026,21.9673105 C59.1336624,23.0083171 59.7706962,23.8939495 60.5631042,24.6242079 C61.3555122,25.3544662 62.2566821,25.9526566 63.2666139,26.4187789 C64.2765456,26.8849013 65.3097835,27.288874 66.3663275,27.6306971 C67.4539463,27.9725201 68.4250345,28.291037 69.2795922,28.5862479 C70.1341498,28.8814587 70.8488707,29.2077443 71.423755,29.5651048 C71.9986392,29.9224653 72.4414554,30.3186693 72.7522037,30.7537168 C73.0629519,31.1887643 73.218326,31.7170363 73.218326,32.3385328 C73.218326,32.9911041 73.0940267,33.5504509 72.8454281,34.0165732 C72.5968296,34.4826956 72.2627752,34.8555935 71.8432651,35.1352669 C71.423755,35.4149403 70.9343265,35.6169266 70.3749797,35.7412259 C69.8156329,35.8655252 69.2407486,35.9276749 68.650327,35.9276749 C67.3451844,35.9276749 66.0322731,35.5936205 64.7115931,34.9255118 C63.3909132,34.2574031 62.3266005,33.4261516 61.518655,32.4317573 L56.2980847,37.745552 C57.7586014,39.2682184 59.592016,40.441293 61.7983285,41.2647758 C64.0046409,42.0882586 66.2886404,42.5 68.650327,42.5 Z" id="Path" fill="#1A3336" fill-rule="nonzero"></path>
            <path d="M98.1092409,42.5 C99.8183562,42.5 101.434247,42.235864 102.956913,41.707592 C104.47958,41.17932 105.722573,40.4490617 106.685892,39.516817 L106.685892,39.516817 L102.444179,34.3428589 C101.978056,34.9022057 101.364329,35.3294845 100.602996,35.6246953 C99.8416623,35.9199062 99.0725605,36.0675116 98.2956899,36.0675116 C97.4566697,36.0675116 96.7031052,35.9121375 96.0349965,35.6013892 C95.3668878,35.290641 94.7920036,34.8633622 94.3103438,34.3195528 C93.828684,33.7757434 93.4635549,33.1464782 93.2149563,32.4317573 C92.9663577,31.7170363 92.8420584,30.9557031 92.8420584,30.1477577 C92.8420584,29.3398123 92.9741264,28.5784792 93.2382624,27.8637582 C93.5023984,27.1490373 93.8675276,26.5197721 94.3336499,25.9759627 C94.7997723,25.4321533 95.3591191,24.9971058 96.0116904,24.6708201 C96.6642617,24.3445345 97.39452,24.1813917 98.2024654,24.1813917 C98.979336,24.1813917 99.7406692,24.3523032 100.486465,24.6941262 C101.232261,25.0359493 101.822682,25.4865342 102.25773,26.0458811 L102.25773,26.0458811 L106.685892,20.9185352 C106.21977,20.4524129 105.668192,20.025134 105.031158,19.6366988 C104.394124,19.2482635 103.69494,18.9219778 102.933607,18.6578418 C102.172274,18.3937058 101.379866,18.1839508 100.556383,18.0285767 C99.7329005,17.8732025 98.9016489,17.7955155 98.0626287,17.7955155 C96.260289,17.7955155 94.5667111,18.0829576 92.9818951,18.6578418 C91.3970791,19.2327261 90.0220182,20.0562089 88.8567123,21.1282903 C87.6914064,22.2003717 86.7746991,23.4977456 86.1065904,25.0204119 C85.4384817,26.5430782 85.1044274,28.2521935 85.1044274,30.1477577 C85.1044274,32.0743968 85.4384817,33.7990495 86.1065904,35.3217158 C86.7746991,36.8443822 87.6914064,38.141756 88.8567123,39.2138374 C90.0220182,40.2859188 91.3970791,41.101633 92.9818951,41.6609798 C94.5667111,42.2203266 96.2758264,42.5 98.1092409,42.5 Z" id="Path" fill="#1A3336" fill-rule="nonzero"></path>
            <path d="M118.94491,42.0804899 L118.94491,29.5417987 C118.94491,28.1434316 119.30227,26.9703571 120.016991,26.0225749 C120.731712,25.0747928 121.757181,24.6009018 123.093399,24.6009018 C123.777045,24.6009018 124.336392,24.7329698 124.771439,24.9971058 C125.206487,25.2612418 125.556079,25.6186022 125.820215,26.0691872 C126.084351,26.5197721 126.263031,27.0402754 126.356255,27.6306971 C126.44948,28.2211187 126.496092,28.8426152 126.496092,29.4951864 L126.496092,29.4951864 L126.496092,42.0804899 L134.187111,42.0804899 L134.187111,27.7239215 C134.187111,26.5741531 134.039505,25.4243846 133.744295,24.2746161 C133.449084,23.1248477 132.967424,22.1071472 132.299315,21.2215147 C131.631207,20.3358823 130.761112,19.6133926 129.68903,19.0540458 C128.616949,18.494699 127.2885,18.2150256 125.703684,18.2150256 C124.087793,18.2150256 122.704964,18.5801548 121.555195,19.3104131 C120.405427,20.0406715 119.566406,20.871923 119.038134,21.8041677 L119.038134,21.8041677 L118.94491,21.8041677 L118.94491,6.84164026 L111.300503,6.84164026 L111.300503,42.0804899 L118.94491,42.0804899 Z" id="Path" fill="#1A3336" fill-rule="nonzero"></path>
            <g id="Group" transform="translate(138.801722, 17.795515)" fill="#1A3336" fill-rule="nonzero">
                <path d="M12.5386912,0 C14.2478065,0 15.8170851,0.287442116 17.2465269,0.862326347 C18.6759688,1.43721058 19.9034243,2.2684621 20.9288935,3.35608092 C21.9543627,4.44369973 22.7545394,5.76437972 23.3294236,7.31812089 C23.9043078,8.87186205 24.1917499,10.643127 24.1917499,12.6319157 L24.1917499,12.6319157 L24.1917499,13.5641604 L24.1865708,13.8697295 C24.1796653,14.0699894 24.1658543,14.2633439 24.1451377,14.4497928 L24.1451377,14.4497928 L7.31812089,14.4497928 L7.35284225,14.7256612 C7.43845655,15.2697877 7.62110041,15.7682532 7.90077382,16.2210578 C8.22705947,16.7493298 8.64656958,17.2076834 9.15930417,17.5961187 C9.67203875,17.984554 10.246923,18.2875335 10.8839569,18.5050573 C11.5209907,18.722581 12.1813307,18.8313429 12.8649768,18.8313429 C14.076895,18.8313429 15.1023641,18.6060505 15.9413844,18.1554655 C16.7804046,17.7048806 17.4640507,17.1222276 17.9923227,16.4075067 L17.9923227,16.4075067 L23.3061175,19.7635876 L23.0839325,20.0756824 C22.0253168,21.5094057 20.6621679,22.6250609 18.9944857,23.4226481 C17.2076834,24.2772057 15.1334389,24.7044845 12.7717524,24.7044845 C11.0315623,24.7044845 9.38459664,24.4325798 7.83085547,23.8887704 C6.27711431,23.344961 4.91759079,22.552553 3.75228491,21.5115464 C2.58697904,20.4705398 1.67027175,19.1887034 1.00216305,17.666037 C0.33405435,16.1433707 0,14.4031806 0,12.4454667 C0,10.5499025 0.326285645,8.83301852 0.978856934,7.29481477 C1.63142822,5.75661102 2.51706069,4.45146844 3.63575433,3.37938703 C4.75444796,2.30730563 6.07512796,1.47605411 7.5977943,0.885632464 C9.12046064,0.295210821 10.7674263,0 12.5386912,0 Z M12.5853034,5.26718255 C11.8395077,5.26718255 11.1558616,5.38371314 10.5343651,5.61677431 C9.91286863,5.84983549 9.36905922,6.16835243 8.90293688,6.57232513 C8.43681453,6.97629783 8.06391665,7.45018889 7.78424324,7.99399829 C7.50456983,8.5378077 7.34919571,9.10492323 7.31812089,9.69534487 L7.31812089,9.69534487 L17.1533025,9.69534487 C17.1533025,8.48342676 16.7726359,7.44242018 16.0113027,6.57232513 C15.2499695,5.70223008 14.1079698,5.26718255 12.5853034,5.26718255 Z" id="Combined-Shape"></path>
            </g>
            <path d="M175.299102,41.6609798 L175.299102,29.0756763 C175.299102,28.423105 175.384558,27.7938399 175.555469,27.1878808 C175.726381,26.5819218 175.982748,26.0458811 176.324571,25.5797587 C176.666394,25.1136364 177.093673,24.7485072 177.606408,24.4843712 C178.119142,24.2202352 178.717333,24.0881672 179.400979,24.0881672 C180.084625,24.0881672 180.65174,24.2202352 181.102325,24.4843712 C181.55291,24.7485072 181.902502,25.1058677 182.151101,25.5564526 C182.399699,26.0070375 182.578379,26.5275408 182.687141,27.1179625 C182.795903,27.7083841 182.850284,28.3298806 182.850284,28.9824519 L182.850284,28.9824519 L182.850284,41.6609798 L190.541303,41.6609798 L190.541303,27.3044114 C190.541303,26.1546429 190.393697,25.0048745 190.098487,23.855106 C189.803276,22.7053376 189.321616,21.6876371 188.653507,20.8020046 C187.985399,19.9163722 187.107535,19.1938825 186.019916,18.6345357 C184.932297,18.0751889 183.611617,17.7955155 182.057876,17.7955155 C181.249931,17.7955155 180.488598,17.9042774 179.773877,18.1218011 C179.059156,18.3393249 178.398816,18.6189983 177.792857,18.9608214 C177.186898,19.3026444 176.658626,19.7143858 176.208041,20.1960456 C175.757456,20.6777053 175.392326,21.1671338 175.112653,21.664331 L175.112653,21.664331 L175.019429,21.664331 L175.019429,18.4480868 L167.608083,18.4480868 L167.608083,41.6609798 L175.299102,41.6609798 Z" id="Path" fill="#1A3336" fill-rule="nonzero"></path>
            <polygon id="Path" fill="#1A3336" fill-rule="nonzero" points="202.846933 41.6609798 202.846933 30.5206556 202.98677 30.5206556 210.584564 41.6609798 220.046848 41.6609798 210.724401 28.9358396 219.67395 18.4480868 210.398115 18.4480868 202.98677 27.8637582 202.846933 27.8637582 202.846933 6.42213015 195.155914 6.42213015 195.155914 41.6609798"></polygon>
        </g>
    </g>
</svg>