<?xml version="1.0" encoding="UTF-8"?>
<svg width="218px" height="62px" viewBox="0 0 218 62" version="1.1"
     xmlns="http://www.w3.org/2000/svg">
   <title>Group 6 Copy</title>
   <g id="Page-1" stroke="none" stroke-width="1" fill="none" fill-rule="evenodd">
      <g id="Group-5-Copy" transform="translate(0.476576, 0.502000)">
         <text id="©1999" font-family="AvenirNext-Bold, Avenir Next" font-size="14" font-weight="bold" fill="#FFFFFF">
            <tspan x="169.670848" y="56.5">©1999</tspan>
         </text>
         <g id="LOGO-GRÜN-MARTIN-SCHENK" fill="#24CD9C">
            <circle id="Oval" cx="14.02683" cy="28.0536599" r="14.02683"></circle>
            <circle id="Oval" cx="35.0670749" cy="14.02683" r="7.01341498"></circle>
            <circle id="Oval" cx="45.5871974" cy="3.50670749" r="3.50670749"></circle>
         </g>
         <path
            d="M65.650327,42.5 C67.2662178,42.5 68.8354964,42.2824762 70.3581627,41.8474287 C71.8808291,41.4123812 73.2325839,40.7442725 74.4134272,39.8431026 C75.5942705,38.9419327 76.5342839,37.799933 77.2334674,36.4171033 C77.9326509,35.0342737 78.2822427,33.3950768 78.2822427,31.4995126 C78.2822427,29.8525469 77.955957,28.477486 77.3033857,27.3743298 C76.6508144,26.2711735 75.8273316,25.3466975 74.8329373,24.6009018 C73.8385429,23.855106 72.7353867,23.2569157 71.5234686,22.8063307 C70.3115505,22.3557458 69.1462446,21.9440044 68.027551,21.5711065 C67.2506804,21.3225079 66.5514969,21.081678 65.9300004,20.8486169 C65.3085039,20.6155557 64.7724632,20.3591884 64.3218783,20.079515 C63.8712934,19.7998416 63.5294703,19.4735559 63.2964091,19.1006581 C63.063348,18.7277602 62.9468174,18.2616378 62.9468174,17.702291 C62.9468174,17.0497197 63.0944228,16.513679 63.3896336,16.0941689 C63.6848444,15.6746588 64.0499736,15.3328357 64.4850211,15.0686997 C64.9200686,14.8045637 65.4094971,14.6258835 65.9533065,14.532659 C66.4971159,14.4394346 67.0331566,14.3928223 67.5614286,14.3928223 C68.5868978,14.3928223 69.6512105,14.6491896 70.7543667,15.1619242 C71.857523,15.6746588 72.7509241,16.3660736 73.4345702,17.2361687 L78.5153038,11.8757616 C77.0547871,10.5395442 75.3534406,9.52961248 73.4112641,8.84596637 C71.4690877,8.16232025 69.5657547,7.8204972 67.7012653,7.8204972 C66.1475242,7.8204972 64.6093204,8.01471484 63.0866541,8.40315013 C61.5639877,8.79158543 60.1966955,9.40531319 58.9847774,10.2443334 C57.7728593,11.0833536 56.7940024,12.155435 56.0482066,13.4605776 C55.3024108,14.7657202 54.929513,16.3349988 54.929513,18.1684134 C54.929513,19.6600049 55.1703428,20.9263039 55.6520026,21.9673105 C56.1336624,23.0083171 56.7706962,23.8939495 57.5631042,24.6242079 C58.3555122,25.3544662 59.2566821,25.9526566 60.2666139,26.4187789 C61.2765456,26.8849013 62.3097835,27.288874 63.3663275,27.6306971 C64.4539463,27.9725201 65.4250345,28.291037 66.2795922,28.5862479 C67.1341498,28.8814587 67.8488707,29.2077443 68.423755,29.5651048 C68.9986392,29.9224653 69.4414554,30.3186693 69.7522037,30.7537168 C70.0629519,31.1887643 70.218326,31.7170363 70.218326,32.3385328 C70.218326,32.9911041 70.0940267,33.5504509 69.8454281,34.0165732 C69.5968296,34.4826956 69.2627752,34.8555935 68.8432651,35.1352669 C68.423755,35.4149403 67.9343265,35.6169266 67.3749797,35.7412259 C66.8156329,35.8655252 66.2407486,35.9276749 65.650327,35.9276749 C64.3451844,35.9276749 63.0322731,35.5936205 61.7115931,34.9255118 C60.3909132,34.2574031 59.3266005,33.4261516 58.518655,32.4317573 L53.2980847,37.745552 C54.7586014,39.2682184 56.592016,40.441293 58.7983285,41.2647758 C61.0046409,42.0882586 63.2886404,42.5 65.650327,42.5 Z"
            id="Path" fill="#FFFFFF" fill-rule="nonzero"></path>
         <path
            d="M95.1092409,42.5 C96.8183562,42.5 98.434247,42.235864 99.9569134,41.707592 C101.47958,41.17932 102.722573,40.4490617 103.685892,39.516817 L103.685892,39.516817 L99.4441788,34.3428589 C98.9780564,34.9022057 98.3643287,35.3294845 97.6029955,35.6246953 C96.8416623,35.9199062 96.0725605,36.0675116 95.2956899,36.0675116 C94.4566697,36.0675116 93.7031052,35.9121375 93.0349965,35.6013892 C92.3668878,35.290641 91.7920036,34.8633622 91.3103438,34.3195528 C90.828684,33.7757434 90.4635549,33.1464782 90.2149563,32.4317573 C89.9663577,31.7170363 89.8420584,30.9557031 89.8420584,30.1477577 C89.8420584,29.3398123 89.9741264,28.5784792 90.2382624,27.8637582 C90.5023984,27.1490373 90.8675276,26.5197721 91.3336499,25.9759627 C91.7997723,25.4321533 92.3591191,24.9971058 93.0116904,24.6708201 C93.6642617,24.3445345 94.39452,24.1813917 95.2024654,24.1813917 C95.979336,24.1813917 96.7406692,24.3523032 97.4864649,24.6941262 C98.2322607,25.0359493 98.8226823,25.4865342 99.2577299,26.0458811 L99.2577299,26.0458811 L103.685892,20.9185352 C103.21977,20.4524129 102.668192,20.025134 102.031158,19.6366988 C101.394124,19.2482635 100.69494,18.9219778 99.9336073,18.6578418 C99.1722741,18.3937058 98.3798661,18.1839508 97.5563833,18.0285767 C96.7329005,17.8732025 95.9016489,17.7955155 95.0626287,17.7955155 C93.260289,17.7955155 91.5667111,18.0829576 89.9818951,18.6578418 C88.3970791,19.2327261 87.0220182,20.0562089 85.8567123,21.1282903 C84.6914064,22.2003717 83.7746991,23.4977456 83.1065904,25.0204119 C82.4384817,26.5430782 82.1044274,28.2521935 82.1044274,30.1477577 C82.1044274,32.0743968 82.4384817,33.7990495 83.1065904,35.3217158 C83.7746991,36.8443822 84.6914064,38.141756 85.8567123,39.2138374 C87.0220182,40.2859188 88.3970791,41.101633 89.9818951,41.6609798 C91.5667111,42.2203266 93.2758264,42.5 95.1092409,42.5 Z"
            id="Path" fill="#FFFFFF" fill-rule="nonzero"></path>
         <path
            d="M115.94491,42.0804899 L115.94491,29.5417987 C115.94491,28.1434316 116.30227,26.9703571 117.016991,26.0225749 C117.731712,25.0747928 118.757181,24.6009018 120.093399,24.6009018 C120.777045,24.6009018 121.336392,24.7329698 121.771439,24.9971058 C122.206487,25.2612418 122.556079,25.6186022 122.820215,26.0691872 C123.084351,26.5197721 123.263031,27.0402754 123.356255,27.6306971 C123.44948,28.2211187 123.496092,28.8426152 123.496092,29.4951864 L123.496092,29.4951864 L123.496092,42.0804899 L131.187111,42.0804899 L131.187111,27.7239215 C131.187111,26.5741531 131.039505,25.4243846 130.744295,24.2746161 C130.449084,23.1248477 129.967424,22.1071472 129.299315,21.2215147 C128.631207,20.3358823 127.761112,19.6133926 126.68903,19.0540458 C125.616949,18.494699 124.2885,18.2150256 122.703684,18.2150256 C121.087793,18.2150256 119.704964,18.5801548 118.555195,19.3104131 C117.405427,20.0406715 116.566406,20.871923 116.038134,21.8041677 L116.038134,21.8041677 L115.94491,21.8041677 L115.94491,6.84164026 L108.300503,6.84164026 L108.300503,42.0804899 L115.94491,42.0804899 Z"
            id="Path" fill="#FFFFFF" fill-rule="nonzero"></path>
         <g id="Group" transform="translate(135.801722, 17.795515)" fill="#FFFFFF" fill-rule="nonzero">
            <path
               d="M12.5386912,0 C14.2478065,0 15.8170851,0.287442116 17.2465269,0.862326347 C18.6759688,1.43721058 19.9034243,2.2684621 20.9288935,3.35608092 C21.9543627,4.44369973 22.7545394,5.76437972 23.3294236,7.31812089 C23.9043078,8.87186205 24.1917499,10.643127 24.1917499,12.6319157 L24.1917499,12.6319157 L24.1917499,13.5641604 L24.1865708,13.8697295 C24.1796653,14.0699894 24.1658543,14.2633439 24.1451377,14.4497928 L24.1451377,14.4497928 L7.31812089,14.4497928 L7.35284225,14.7256612 C7.43845655,15.2697877 7.62110041,15.7682532 7.90077382,16.2210578 C8.22705947,16.7493298 8.64656958,17.2076834 9.15930417,17.5961187 C9.67203875,17.984554 10.246923,18.2875335 10.8839569,18.5050573 C11.5209907,18.722581 12.1813307,18.8313429 12.8649768,18.8313429 C14.076895,18.8313429 15.1023641,18.6060505 15.9413844,18.1554655 C16.7804046,17.7048806 17.4640507,17.1222276 17.9923227,16.4075067 L17.9923227,16.4075067 L23.3061175,19.7635876 L23.0839325,20.0756824 C22.0253168,21.5094057 20.6621679,22.6250609 18.9944857,23.4226481 C17.2076834,24.2772057 15.1334389,24.7044845 12.7717524,24.7044845 C11.0315623,24.7044845 9.38459664,24.4325798 7.83085547,23.8887704 C6.27711431,23.344961 4.91759079,22.552553 3.75228491,21.5115464 C2.58697904,20.4705398 1.67027175,19.1887034 1.00216305,17.666037 C0.33405435,16.1433707 0,14.4031806 0,12.4454667 C0,10.5499025 0.326285645,8.83301852 0.978856934,7.29481477 C1.63142822,5.75661102 2.51706069,4.45146844 3.63575433,3.37938703 C4.75444796,2.30730563 6.07512796,1.47605411 7.5977943,0.885632464 C9.12046064,0.295210821 10.7674263,0 12.5386912,0 Z M12.5853034,5.26718255 C11.8395077,5.26718255 11.1558616,5.38371314 10.5343651,5.61677431 C9.91286863,5.84983549 9.36905922,6.16835243 8.90293688,6.57232513 C8.43681453,6.97629783 8.06391665,7.45018889 7.78424324,7.99399829 C7.50456983,8.5378077 7.34919571,9.10492323 7.31812089,9.69534487 L7.31812089,9.69534487 L17.1533025,9.69534487 C17.1533025,8.48342676 16.7726359,7.44242018 16.0113027,6.57232513 C15.2499695,5.70223008 14.1079698,5.26718255 12.5853034,5.26718255 Z"
               id="Combined-Shape"></path>
         </g>
         <path
            d="M172.299102,41.6609798 L172.299102,29.0756763 C172.299102,28.423105 172.384558,27.7938399 172.555469,27.1878808 C172.726381,26.5819218 172.982748,26.0458811 173.324571,25.5797587 C173.666394,25.1136364 174.093673,24.7485072 174.606408,24.4843712 C175.119142,24.2202352 175.717333,24.0881672 176.400979,24.0881672 C177.084625,24.0881672 177.65174,24.2202352 178.102325,24.4843712 C178.55291,24.7485072 178.902502,25.1058677 179.151101,25.5564526 C179.399699,26.0070375 179.578379,26.5275408 179.687141,27.1179625 C179.795903,27.7083841 179.850284,28.3298806 179.850284,28.9824519 L179.850284,28.9824519 L179.850284,41.6609798 L187.541303,41.6609798 L187.541303,27.3044114 C187.541303,26.1546429 187.393697,25.0048745 187.098487,23.855106 C186.803276,22.7053376 186.321616,21.6876371 185.653507,20.8020046 C184.985399,19.9163722 184.107535,19.1938825 183.019916,18.6345357 C181.932297,18.0751889 180.611617,17.7955155 179.057876,17.7955155 C178.249931,17.7955155 177.488598,17.9042774 176.773877,18.1218011 C176.059156,18.3393249 175.398816,18.6189983 174.792857,18.9608214 C174.186898,19.3026444 173.658626,19.7143858 173.208041,20.1960456 C172.757456,20.6777053 172.392326,21.1671338 172.112653,21.664331 L172.112653,21.664331 L172.019429,21.664331 L172.019429,18.4480868 L164.608083,18.4480868 L164.608083,41.6609798 L172.299102,41.6609798 Z"
            id="Path" fill="#FFFFFF" fill-rule="nonzero"></path>
         <polygon id="Path" fill="#FFFFFF" fill-rule="nonzero"
                  points="199.846933 41.6609798 199.846933 30.5206556 199.98677 30.5206556 207.584564 41.6609798 217.046848 41.6609798 207.724401 28.9358396 216.67395 18.4480868 207.398115 18.4480868 199.98677 27.8637582 199.846933 27.8637582 199.846933 6.42213015 192.155914 6.42213015 192.155914 41.6609798"></polygon>
      </g>
   </g>
</svg>
